<svg width="11" height="11" viewBox="0 0 11 11" fill="none" xmlns="http://www.w3.org/2000/svg">
<g clip-path="url(#clip0_493_53)">
<path d="M4.36929 5.11031C4.21287 5.26696 4.12501 5.47927 4.125 5.70064V6.87489H5.30658C5.52796 6.87489 5.74062 6.78689 5.89737 6.63014L9.38071 3.14498C9.45827 3.06743 9.5198 2.97536 9.56178 2.87403C9.60376 2.7727 9.62537 2.6641 9.62537 2.55442C9.62537 2.44473 9.60376 2.33613 9.56178 2.2348C9.5198 2.13347 9.45827 2.0414 9.38071 1.96385L9.0365 1.61964C8.95894 1.54201 8.86685 1.48042 8.76548 1.4384C8.6641 1.39638 8.55544 1.37476 8.44571 1.37476C8.33597 1.37476 8.22731 1.39638 8.12594 1.4384C8.02457 1.48042 7.93247 1.54201 7.85492 1.61964L4.36929 5.11031Z" stroke="#6C6C6C" stroke-width="1.125" stroke-linecap="round" stroke-linejoin="round"/>
<path d="M9.625 5.5C9.625 7.44471 9.625 8.41683 9.02092 9.02092C8.41683 9.625 7.44425 9.625 5.5 9.625C3.55529 9.625 2.58317 9.625 1.97908 9.02092C1.375 8.41683 1.375 7.44425 1.375 5.5C1.375 3.55529 1.375 2.58317 1.97908 1.97908C2.58317 1.375 3.55575 1.375 5.5 1.375" stroke="#6C6C6C" stroke-width="1.125" stroke-linecap="round" stroke-linejoin="round"/>
</g>
<defs>
<clipPath id="clip0_493_53">
<rect width="11" height="11" fill="white"/>
</clipPath>
</defs>
</svg>
